HIERARCHY
ROOT root
{
	OFFSET 0.000000 0.000000 0.000000
	CHANNELS 6 Xposition Yposition Zposition Zrotation Yrotation Xrotation
	JOINT lhip
	{
		OFFSET 0.058581 -0.082280 -0.017664
		CHANNELS 3 Zrotation Yrotation Xrotation
		JOINT lknee
		{
			OFFSET 0.043451 -0.386469 0.008037
			CHANNELS 3 Zrotation Yrotation Xrotation
			JOINT lankle
			{
				OFFSET -0.014790 -0.426874 -0.037428
				CHANNELS 3 Zrotation Yrotation Xrotation
				JOINT ltoe
				{
					OFFSET 0.041054 -0.060286 0.122042
					CHANNELS 3 Zrotation Yrotation Xrotation
					End Site
					{
						OFFSET 0.000000 0.000000 0.000000
					}
				}
			}
		}
	}
	JOINT rhip
	{
		OFFSET -0.060310 -0.090513 -0.013543
		CHANNELS 3 Zrotation Yrotation Xrotation
		JOINT rknee
		{
			OFFSET -0.043257 -0.383688 -0.004843
			CHANNELS 3 Zrotation Yrotation Xrotation
			JOINT rankle
			{
				OFFSET 0.019056 -0.420046 -0.034562
				CHANNELS 3 Zrotation Yrotation Xrotation
				JOINT rtoe
				{
					OFFSET -0.034840 -0.062106 0.130323
					CHANNELS 3 Zrotation Yrotation Xrotation
					End Site
					{
						OFFSET 0.000000 0.000000 0.000000
					}
				}
			}
		}
	}
	JOINT lowerback
	{
		OFFSET 0.004439 0.124404 -0.038385
		CHANNELS 3 Zrotation Yrotation Xrotation
		JOINT upperback
		{
			OFFSET 0.004488 0.137956 0.026820
			CHANNELS 3 Zrotation Yrotation Xrotation
			JOINT chest
			{
				OFFSET -0.002265 0.056032 0.002855
				CHANNELS 3 Zrotation Yrotation Xrotation
				JOINT lowerneck
				{
					OFFSET -0.013390 0.211636 -0.033468
					CHANNELS 3 Zrotation Yrotation Xrotation
					JOINT upperneck
					{
						OFFSET 0.010113 0.088937 0.050410
						CHANNELS 3 Zrotation Yrotation Xrotation
						End Site
						{
							OFFSET 0.000000 0.000000 0.000000
						}
					}
				}
				JOINT lclavicle
				{
					OFFSET 0.071702 0.114000 -0.018898
					CHANNELS 3 Zrotation Yrotation Xrotation
					JOINT lshoulder
					{
						OFFSET 0.122921 0.045205 -0.019046
						CHANNELS 3 Zrotation Yrotation Xrotation
						JOINT lelbow
						{
							OFFSET 0.255332 -0.015649 -0.022946
							CHANNELS 3 Zrotation Yrotation Xrotation
							JOINT lwrist
							{
								OFFSET 0.265709 0.012698 -0.007375
								CHANNELS 3 Zrotation Yrotation Xrotation
								End Site
								{
									OFFSET 0.000000 0.000000 0.000000
								}
							}
						}
					}
				}
				JOINT rclavicle
				{
					OFFSET -0.082954 0.112472 -0.023707
					CHANNELS 3 Zrotation Yrotation Xrotation
					JOINT rshoulder
					{
						OFFSET -0.113228 0.046853 -0.008472
						CHANNELS 3 Zrotation Yrotation Xrotation
						JOINT relbow
						{
							OFFSET -0.260127 -0.014369 -0.031269
							CHANNELS 3 Zrotation Yrotation Xrotation
							JOINT rwrist
							{
								OFFSET -0.269108 0.006794 -0.006027
								CHANNELS 3 Zrotation Yrotation Xrotation
								End Site
								{
									OFFSET 0.000000 0.000000 0.000000
								}
							}
						}
					}
				}
			}
		}
	}
}
MOTION
Frames: 13
Frame Time: 0.033333
-0.916141 -0.253746 0.972212 176.992403 1.665337 89.927348 11.557328 4.364001 -2.650448 -3.583606 -5.570588 7.304154 1.688328 8.672161 -11.251338 0.000000 -0.000000 0.000000 -7.460548 -5.793364 -10.906601 0.546743 -4.597344 21.067726 3.728719 -6.396094 -9.615604 0.000000 -0.000000 0.000000 1.152919 0.670357 10.027013 3.603151 -2.027683 1.379348 -2.011717 -0.637465 -4.435996 1.785144 -0.126291 -4.409600 0.932426 -2.440466 11.277992 -30.402587 -4.391543 2.918136 -55.054776 -6.033710 12.801842 11.885940 -18.850713 -5.942615 7.329033 -8.914385 -2.061502 27.667462 8.966417 4.158303 48.393585 6.060389 13.567598 -9.378709 19.474511 -1.299685 2.422415 7.097379 7.466517 
-0.916504 -0.253014 0.971924 177.043313 1.570464 89.936092 11.453433 4.306933 -2.703088 -3.651632 -5.592325 7.459850 1.806448 8.717284 -11.336207 0.000000 -0.000000 0.000000 -7.608923 -5.731026 -10.939838 0.608438 -4.503902 21.222838 3.826052 -6.631385 -9.713942 0.000000 -0.000000 0.000000 1.072788 0.643053 10.033348 3.559055 -1.988840 1.397553 -1.928854 -0.608191 -4.501391 1.770700 -0.160357 -4.498012 0.886859 -2.412235 11.301547 -30.360747 -4.447383 2.909221 -55.012997 -6.134458 12.888019 11.888636 -19.156017 -5.866811 7.482051 -8.886402 -2.177850 27.619066 8.953170 4.120036 48.531163 6.002493 13.624967 -9.395704 19.398751 -1.197248 2.355257 7.091044 7.384149 
-0.916813 -0.252130 0.971674 177.107203 1.504655 89.924550 11.363742 4.250967 -2.697913 -3.668153 -5.658016 7.554719 1.862123 8.757811 -11.416455 0.000000 -0.000000 0.000000 -7.730527 -5.715769 -10.941779 0.650696 -4.436170 21.383076 3.880815 -6.760666 -9.788147 0.000000 -0.000000 0.000000 0.988900 0.589149 10.023448 3.578393 -1.983619 1.411939 -1.886036 -0.532001 -4.518355 1.774010 -0.139638 -4.480926 0.873427 -2.393564 11.293153 -30.328499 -4.465896 2.889548 -55.009980 -6.235490 12.920906 11.943422 -19.484147 -5.783842 7.517514 -8.868463 -2.133023 27.566505 8.931657 4.131783 48.614809 6.017861 13.586952 -9.344200 19.318064 -1.118270 2.240133 7.016594 7.444560 
-0.916923 -0.250753 0.971555 177.172503 1.578548 89.880014 11.453234 4.286110 -2.587427 -3.692729 -5.733459 7.583807 1.855349 8.706980 -11.516489 0.000000 -0.000000 0.000000 -7.617626 -5.816093 -10.967753 0.540627 -4.375195 21.687664 3.965393 -6.744957 -9.987116 0.000000 -0.000000 0.000000 1.067186 0.605081 9.995065 3.679234 -2.058395 1.485116 -1.910266 -0.489760 -4.559137 1.840365 -0.134327 -4.340029 0.741443 -2.350557 11.286633 -30.353711 -4.441416 2.812471 -54.949507 -6.276616 12.942516 12.027450 -19.995536 -5.803726 7.719438 -8.772394 -2.098017 27.516446 9.026276 4.127507 48.704932 5.966002 13.673013 -9.350804 19.124681 -1.103992 2.088932 7.035791 7.546536 
-0.916950 -0.250320 0.971585 177.184873 1.595501 89.859519 11.472830 4.310278 -2.526375 -3.695411 -5.749847 7.561361 1.863045 8.687269 -11.529892 0.000000 -0.000000 0.000000 -7.581080 -5.863643 -10.946751 0.492687 -4.363932 21.745913 3.970482 -6.699804 -10.037672 0.000000 -0.000000 0.000000 1.115239 0.636334 10.012191 3.686831 -2.072693 1.475410 -1.923043 -0.511902 -4.560342 1.842985 -0.152239 -4.277833 0.713950 -2.338070 11.278522 -30.371898 -4.445916 2.805780 -54.914567 -6.292910 12.930856 12.045650 -20.109513 -5.844689 7.788068 -8.765679 -2.148539 27.512828 9.068731 4.123791 48.746877 5.957094 13.717467 -9.381457 19.028502 -1.085529 2.114525 7.069794 7.563514 
-0.917097 -0.249517 0.971716 177.199683 1.571468 89.818845 11.424846 4.332323 -2.382630 -3.671479 -5.795363 7.471923 1.909180 8.692544 -11.532817 0.000000 -0.000000 0.000000 -7.604583 -5.921601 -10.833681 0.464654 -4.335131 21.740666 3.941202 -6.615398 -10.080040 0.000000 -0.000000 0.000000 1.186662 0.691293 10.111522 3.636683 -2.061776 1.389487 -1.927320 -0.569320 -4.565035 1.797720 -0.221560 -4.210510 0.719750 -2.284260 11.443535 -30.399401 -4.469090 2.863189 -54.869744 -6.365599 12.875386 12.093660 -20.221968 -5.873918 7.884121 -8.782709 -2.324055 27.506962 9.115423 4.177478 48.834156 5.998045 13.763047 -9.449041 18.867793 -1.015682 2.198719 7.091564 7.537836 
-0.917276 -0.248842 0.971857 177.201107 1.511973 89.811536 11.314483 4.319419 -2.264742 -3.616500 -5.856284 7.350905 1.945010 8.750277 -11.527949 0.000000 -0.000000 0.000000 -7.696418 -5.910977 -10.725518 0.512695 -4.293047 21.658141 3.917912 -6.588186 -10.092759 0.000000 -0.000000 0.000000 1.214820 0.700247 10.246827 3.546900 -2.012427 1.277637 -1.898897 -0.596999 -4.611857 1.726966 -0.335032 -4.228448 0.737096 -2.162587 12.041443 -30.391685 -4.505840 3.007702 -54.881867 -6.482384 12.820911 12.120085 -20.208292 -5.781175 8.026883 -8.766461 -2.501714 27.480137 9.124768 4.354224 48.873765 6.081251 13.755691 -9.487750 18.858687 -0.981226 2.109287 7.067584 7.440184 
-0.917318 -0.248488 0.972063 177.181445 1.482454 89.863458 11.249470 4.321365 -2.258759 -3.577510 -5.896368 7.277481 1.945665 8.811405 -11.527828 0.000000 -0.000000 0.000000 -7.724255 -5.869341 -10.760702 0.532089 -4.260586 21.651895 3.937253 -6.603547 -10.137366 0.000000 -0.000000 0.000000 1.231269 0.692266 10.368274 3.475498 -1.945884 1.175891 -1.855130 -0.612770 -4.668230 1.653355 -0.455842 -4.178950 0.689276 -1.976328 12.919040 -30.336930 -4.588823 3.185402 -54.921541 -6.583569 12.833072 12.094556 -20.142471 -5.636240 8.264203 -8.653794 -2.623846 27.430248 9.149762 4.572355 48.843143 6.130699 13.786478 -9.514604 19.060825 -0.985309 1.901808 7.076199 7.292500 
-0.917135 -0.248501 0.972358 177.124517 1.516247 89.944061 11.294959 4.367611 -2.342905 -3.586094 -5.888190 7.278923 1.948191 8.834223 -11.516899 0.000000 -0.000000 0.000000 -7.634669 -5.844192 -10.909800 0.498122 -4.226751 21.707852 3.972973 -6.614237 -10.176933 0.000000 -0.000000 0.000000 1.302833 0.739644 10.517984 3.430952 -1.883053 1.096195 -1.822139 -0.665677 -4.671009 1.536731 -0.492496 -3.938049 0.598224 -1.768034 13.661063 -30.304234 -4.816725 3.372912 -54.872788 -6.671871 12.899240 12.019024 -20.051787 -5.589922 8.471562 -8.517387 -2.699430 27.386707 9.236227 4.698953 48.737875 6.142167 13.888372 -9.564073 19.458037 -0.963217 1.856821 7.114152 7.152902 
-0.916902 -0.248914 0.972772 177.036966 1.598955 90.051714 11.406612 4.427920 -2.502177 -3.610868 -5.832371 7.335745 2.012686 8.827250 -11.497660 0.000000 -0.000000 0.000000 -7.494378 -5.849159 -11.103708 0.504612 -4.185931 21.724181 3.954033 -6.605631 -10.161696 0.000000 -0.000000 0.000000 1.445471 0.850550 10.746130 3.414885 -1.885970 1.077548 -1.817845 -0.728592 -4.647139 1.345439 -0.401316 -3.590659 0.540707 -1.556928 14.134203 -30.352187 -5.167463 3.568481 -54.678090 -6.759886 12.960436 11.979495 -20.067554 -5.681891 8.545165 -8.432890 -2.759055 27.335781 9.387336 4.753386 48.535871 6.176602 13.985180 -9.598913 20.084240 -0.864859 1.944414 7.138099 7.091494 
-0.916850 -0.249927 0.973239 176.911701 1.671789 90.242234 11.473010 4.476963 -2.779899 -3.611518 -5.727867 7.395077 2.097188 8.842160 -11.473082 0.000000 -0.000000 0.000000 -7.400329 -5.832819 -11.409966 0.585961 -4.169264 21.694843 3.907499 -6.598123 -10.102079 0.000000 -0.000000 0.000000 1.561225 0.903927 11.106819 3.411302 -1.898012 1.051078 -1.814038 -0.730345 -4.607875 1.140554 -0.275403 -3.351335 0.528293 -1.301814 14.557142 -30.436811 -5.546983 3.750093 -54.386253 -6.851119 13.005183 11.998078 -20.355429 -5.785358 8.648281 -8.394015 -2.822167 27.221844 9.612091 4.832616 48.269570 6.290483 14.040996 -9.581991 20.914815 -0.728421 1.808654 7.246201 7.139264 
-0.917058 -0.251713 0.973696 176.726287 1.666329 90.569053 11.397799 4.524464 -3.217866 -3.567829 -5.551516 7.398781 2.142111 8.900819 -11.403965 0.000000 -0.000000 0.000000 -7.406438 -5.749350 -11.938215 0.658089 -4.231646 21.674829 3.901420 -6.566628 -9.998018 0.000000 -0.000000 0.000000 1.550414 0.838189 11.594538 3.384648 -1.821541 0.956886 -1.787948 -0.669426 -4.516471 1.007069 -0.110358 -3.191602 0.557232 -1.034381 14.817091 -30.474608 -5.942662 3.839340 -54.067099 -6.941483 13.080908 12.038254 -20.913444 -5.831647 8.832958 -8.423813 -2.813775 27.045284 9.938498 4.924388 48.038118 6.502996 14.099475 -9.619952 21.817992 -0.623399 1.466519 7.532190 7.273028 
-0.917420 -0.254137 0.974256 176.470542 1.602100 91.005267 11.200132 4.590647 -3.758753 -3.449259 -5.317537 7.308570 2.156665 8.970747 -11.244005 0.000000 -0.000000 0.000000 -7.455903 -5.598150 -12.629441 0.661216 -4.344999 21.619559 3.948666 -6.492524 -9.800486 0.000000 -0.000000 0.000000 1.463852 0.734939 12.164283 3.307925 -1.676704 0.902294 -1.738804 -0.580617 -4.388171 0.936750 0.221091 -2.950195 0.692750 -0.790038 14.478497 -30.472370 -6.461649 3.802971 -53.732199 -7.035679 13.212565 12.112127 -21.603555 -5.923951 8.855591 -8.532868 -2.614458 26.870094 10.388219 4.940010 47.852792 6.743606 14.161130 -9.849537 22.817812 -0.617219 1.336184 7.829193 7.495849 
